<svg width="512" height="512" viewBox="0 0 512 512" fill="none" xmlns="http://www.w3.org/2000/svg">
<rect width="512" height="512" rx="256" fill="#FF5500"/>
<path d="M335.717 207.21H298.656V155.292C298.656 131.374 279.33 112 255.508 112C231.687 112 212.344 131.391 212.344 155.292V207.21H175.283C148.607 207.21 127 228.905 127 255.654C127 282.403 148.623 304.099 175.283 304.099H212.344V356.708C212.344 380.626 231.67 400 255.508 400C279.346 400 298.656 380.609 298.656 356.708V304.099H335.717C362.393 304.099 384 282.403 384 255.654C384 228.889 362.377 207.21 335.717 207.21Z" fill="white"/>
</svg>
